<?xml version="1.0" standalone="no"?><!DOCTYPE svg PUBLIC "-//W3C//DTD SVG 1.1//EN" "http://www.w3.org/Graphics/SVG/1.1/DTD/svg11.dtd"><svg t="1533794202753" class="icon" style="" viewBox="0 0 1024 1024" version="1.1" xmlns="http://www.w3.org/2000/svg" p-id="18096" data-spm-anchor-id="a313x.7781069.0.i83" xmlns:xlink="http://www.w3.org/1999/xlink" width="128" height="128"><defs><style type="text/css"></style></defs><path d="M723.912679 211.415921H292.184344a16.776891 16.776891 0 0 0-16.618831 16.91237v247.837354c11.064168 10.906108 43.737332 39.469724 81.87484 39.469724 27.20882 0 65.955987-31.024829 103.461257-61.033561 48.930717-39.153605 99.509768-79.616847 150.811378-79.616847 55.682117 0 102.061301 30.121632 128.818522 52.498347v-199.132437a16.754311 16.754311 0 0 0-16.618831-16.93495z m-315.644895 203.038765c-36.737552 0-66.520485-30.324851-66.520485-67.717222 0-37.39237 29.782933-67.717222 66.520485-67.717221 36.692393 0 66.497905 30.324851 66.497905 67.717221s-29.805513 67.717222-66.497905 67.717222z m203.445204-5.690144c-39.831003 0-85.826329 36.805292-130.286218 72.413848-43.850232 35.111797-85.28441 68.23656-123.986417 68.23656-33.147343 0-61.959338-15.060816-81.87484-29.421653v80.249084c0 9.370673 7.451378 16.93495 16.618831 16.934951h431.728335a16.754311 16.754311 0 0 0 16.618831-16.934951v-127.102447l-0.270959 0.248379c-0.564498-0.632238-57.172393-64.623771-128.547563-64.623771z m188.587607-369.588357H215.773848c-87.881103 0-159.414333 69.839735-159.414333 155.688644v648.69892c0 85.871488 71.51065 155.711224 159.414333 155.711223h584.526747c87.903682 0 159.414333-69.839735 159.414333-155.711223V194.864829c0-85.848908-71.51065-155.688644-159.414333-155.688644z m-85.826328 834.486615H289.339272c-14.654377 0-26.554002-13.254421-26.554002-27.592679 0-14.315678 11.899625-27.592679 26.554002-27.592679h425.112415c14.654377 0 26.554002 13.277001 26.554002 27.592679 0 14.338258-11.877045 27.592679-26.531422 27.592679z m0-109.332039H289.339272c-14.654377 0-26.554002-18.560706-26.554002-32.898964 0-14.360838 11.899625-32.898964 26.554002-32.898963h425.112415c14.654377 0 26.554002 18.538126 26.554002 32.898963 0 14.315678-11.877045 32.898964-26.531422 32.898964z m59.272326-164.110959c0 28.021698-22.286395 50.759691-49.833914 50.759691H292.206924c-27.524939 0-49.856494-22.737993-49.856494-50.759691v-371.891511c0-28.021698 22.308975-50.759691 49.856494-50.759691H723.912679c27.547519 0 49.833914 22.715413 49.833914 50.759691v371.891511zM408.493583 312.844983c-18.289746 0-33.124763 15.105976-33.124763 33.711842 0 18.628445 14.835017 33.734421 33.124763 33.734421s33.124763-15.105976 33.124763-33.734421-14.857596-33.711841-33.124763-33.711842z" fill="#d4237a" p-id="18097" data-spm-anchor-id="a313x.7781069.0.i82" class="selected"></path></svg>