<?xml version="1.0" standalone="no"?><!DOCTYPE svg PUBLIC "-//W3C//DTD SVG 1.1//EN" "http://www.w3.org/Graphics/SVG/1.1/DTD/svg11.dtd"><svg t="1536306593470" class="icon" style="" viewBox="0 0 1024 1024" version="1.1" xmlns="http://www.w3.org/2000/svg" p-id="7287" xmlns:xlink="http://www.w3.org/1999/xlink" width="100" height="100"><defs><style type="text/css"></style></defs><path d="M91.091 761.792h411.472v175.617c0 12.011 9.734 21.744 21.745 21.744 12.012 0 21.745-9.733 21.745-21.744V761.792h386.91c12.79 0 23.143-10.373 23.143-23.144 0-12.791-10.373-23.144-23.144-23.144H91.092c-12.792 0-23.144 10.373-23.144 23.144 0 12.79 10.372 23.144 23.143 23.144zM900.585 234.46c0-92.016-74.508-169.602-166.524-169.602H289.992c-92.015 0-166.523 77.566-166.523 169.602v416.308h777.116V234.461z m-43.23 373.099H166.7V231.403c0-61.237 55.84-120.236 117.157-120.236H737.14c61.237 0 120.236 61.977 120.236 123.294V607.56z" fill="#32C32A" p-id="7288"></path><path d="M376.824 238.118L282.477 482.99h39.806l23.024-63.137h105.296l23.024 63.137h40.113l-94.45-244.872h-42.466z m-20.26 150.832l40.828-110.821h1.33l40.523 110.821h-82.682zM626.812 238.118h-89.23V482.99h88.514c39.397 0 69.276-10.95 89.844-32.95 19.545-21.284 29.471-51.062 29.471-89.537 0-38.783-9.619-68.56-28.857-89.23-20.465-22.206-50.243-33.155-89.742-33.155z m60.681 190.638c-14.428 14.735-37.35 22.307-68.253 22.307h-44.206v-181.12h44.922c30.904 0 53.518 7.162 67.946 22 13.712 14.428 20.875 37.043 20.875 68.56 0 30.903-7.163 53.518-21.284 68.253z" fill="#32C32A" p-id="7289"></path></svg>