<?xml version="1.0" standalone="no"?><!DOCTYPE svg PUBLIC "-//W3C//DTD SVG 1.1//EN" "http://www.w3.org/Graphics/SVG/1.1/DTD/svg11.dtd"><svg t="1533798036246" class="icon" style="" viewBox="0 0 1131 1024" version="1.1" xmlns="http://www.w3.org/2000/svg" p-id="27685" xmlns:xlink="http://www.w3.org/1999/xlink" width="141.375" height="128"><defs><style type="text/css"></style></defs><path d="M401.454545 360.468687c-62.189899 0-112.614141 49.907071-112.614141 111.321212 0 13.834343 2.715152 26.892929 7.369697 39.175758 0.517172 2.19798 1.422222 4.39596 2.585859 6.335354 0 0 0 0 0 0.129293l0 0c4.137374 7.240404 12.024242 12.282828 21.074747 12.282828 13.446465 0 24.177778-10.731313 24.177778-23.919192 0-3.232323-0.646465-6.335354-1.810101-9.179798l0 0c0-0.129293 0-0.129293 0-0.129293-3.232323-7.628283-5.042424-15.90303-5.042424-24.565657 0-35.038384 28.832323-63.482828 64.387879-63.482828 35.555556 0 64.387879 28.444444 64.387879 63.482828 0 35.167677-28.961616 64.646465-64.517172 64.646465l0 0.129293c-0.387879-0.129293-0.905051-0.129293-1.163636-0.129293-13.058586 0-23.531313 10.860606-23.531313 24.436364L376.759596 627.070707c0 13.575758 10.472727 24.436364 23.531313 24.436364 12.929293 0 23.531313-10.860606 23.531313-24.436364l0-46.416162c51.587879-10.214141 90.505051-54.949495 90.505051-108.864646C513.939394 410.375758 463.515152 360.468687 401.454545 360.468687zM400.161616 717.317172c13.705051 0 24.694949-10.989899 24.694949-24.436364 0-13.575758-10.989899-24.436364-24.694949-24.436364-13.705051 0-24.824242 10.860606-24.824242 24.436364C375.337374 706.456566 386.456566 717.317172 400.161616 717.317172zM787.135354 502.690909c0 117.39798-119.466667 216.436364-283.022222 247.854545C331.377778 951.59596 113.389899 935.046465 113.389899 935.046465 237.640404 895.612121 264.921212 800.581818 270.222222 747.830303c-156.832323-34.00404-270.222222-130.844444-270.222222-245.139394 0-142.610101 176.226263-258.19798 393.567677-258.19798C610.909091 244.492929 787.135354 360.080808 787.135354 502.690909zM863.418182 331.765657c-15.127273 0-27.539394 12.153535-27.539394 27.151515 0 14.99798 12.282828 27.151515 27.539394 27.151515 15.256566 0 27.539394-12.153535 27.539394-27.151515C890.957576 344.048485 878.674747 331.765657 863.418182 331.765657zM889.664646 190.836364c0-14.480808-11.765657-26.117172-26.375758-26.117172-14.610101 0-26.375758 11.636364-26.375758 26.117172l0 99.814141c0 14.351515 11.765657 25.987879 26.375758 25.987879 14.610101 0 26.375758-11.636364 26.375758-25.987879L889.664646 190.836364zM931.684848 450.456566c3.878788 38.658586 23.789899 108.476768 115.070707 137.438384 0 0-106.149495 8.016162-213.979798-68.654545 1.163636-8.791919 2.068687-17.583838 2.068687-26.505051 0-123.216162-112.614141-228.589899-272.161616-272.420202C596.169697 139.894949 708.008081 80.808081 841.050505 80.808081c159.547475 0 288.969697 84.945455 288.969697 189.543434C1130.020202 354.262626 1046.884848 425.50303 931.684848 450.456566z" p-id="27686" fill="#1296db"></path></svg>