<?xml version="1.0" standalone="no"?><!DOCTYPE svg PUBLIC "-//W3C//DTD SVG 1.1//EN" "http://www.w3.org/Graphics/SVG/1.1/DTD/svg11.dtd"><svg t="1541484465968" class="icon" style="" viewBox="0 0 1024 1024" version="1.1" xmlns="http://www.w3.org/2000/svg" p-id="1905" xmlns:xlink="http://www.w3.org/1999/xlink" width="100" height="100"><defs><style type="text/css"></style></defs><path d="M674.584 314.627c16.41-22.405-16.408-67.094-52.197-50.684-34.328 16.409-58.189 41.781-80.535 68.606 17.924 1.514 37.301 1.514 55.166 1.514 23.857-1.513 65.64-3.025 77.566-19.436zM406.092 265.457c-23.856-8.961-38.753 1.512-49.229 17.922-5.993 8.961-11.928 22.346-2.967 31.307 23.856 23.858 87.985 22.344 132.734 17.923-20.892-25.43-46.263-53.77-80.538-67.152z" p-id="1906" fill="#d81e06"></path><path d="M512.001 8.775C234.077 8.775 8.775 234.077 8.775 512c0 277.924 225.302 503.226 503.226 503.226 277.923 0 503.224-225.302 503.224-503.226 0-277.923-225.301-503.225-503.224-503.225z m-20.89 778.711H277.839c-14.954 0-26.882-11.931-26.882-26.825V502.584h240.154v284.902z m281.934-26.825a26.724 26.724 0 0 1-26.826 26.825H532.891V504.097h240.154v256.564z m23.857-278.968H534.346V353.44c-5.992 0-13.441-1.513-17.924-1.513h-1.512c-7.45 1.513-14.897 1.513-25.372 2.967v126.798h-262.44V380.267c0-16.41 13.442-28.339 28.339-28.339h119.349c-31.306-7.448-55.165-20.89-56.679-46.262-1.512-29.853 32.823-79.024 82.051-67.094 50.685 11.93 86.472 50.743 113.294 85.018 26.83-34.333 67.098-79.083 119.352-86.53 46.262-5.995 82.053 38.754 77.568 68.606-4.479 25.372-28.34 40.268-59.646 46.262h117.836c16.412 0 28.34 13.443 28.34 28.339v101.426z" p-id="1907" fill="#d81e06"></path></svg>