<?xml version="1.0" standalone="no"?><!DOCTYPE svg PUBLIC "-//W3C//DTD SVG 1.1//EN" "http://www.w3.org/Graphics/SVG/1.1/DTD/svg11.dtd"><svg t="1536979039568" class="icon" style="" viewBox="0 0 1024 1024" version="1.1" xmlns="http://www.w3.org/2000/svg" p-id="6827" xmlns:xlink="http://www.w3.org/1999/xlink" width="100" height="100"><defs><style type="text/css"></style></defs><path d="M876.88017237 304.62857216c8.65653419 29.18887651 13.25433515 59.7062144 13.25433515 91.1177307 0 209.47530866-204.23365177 379.28774201-456.16963698 379.28774201-52.6622299 0-103.23338467-7.43402382-150.29768419-21.08538311l71.53778119-44.04295339c23.88667733 3.90388167 48.43816733 6.18589981 73.63467605 6.18589981 220.79691321 0 399.78981376-156.62912057 399.78981376-349.81594112 0-193.19846343-178.99173547-349.81594112-399.78981376-349.81594112S29.05099491 173.07603854 29.05099491 366.27450311c0 111.92019058 60.30466275 211.30674517 153.76495503 275.35577998l0 174.40790642 90.10130147-55.47283797c72.93260686 85.02846805 189.08733781 140.04257337 319.93896619 140.04257337 25.19883776 0 49.74916381-2.28201813 73.63467605-6.19637874l172.39018269 106.14412288L838.8810752 826.15824157c93.45912832-64.05951374 153.76378994-163.43558941 153.76378994-275.36625892C992.64486514 454.79352661 948.43774635 367.83698717 876.88017237 304.62857216zM628.73513301 323.98963485c25.48292608 0 46.12820537 20.66158023 46.12820537 46.11889152 0 25.47710407-20.64528043 46.13984825-46.12820537 46.13984824s-46.1305344-20.66274418-46.1305344-46.13984824C582.60343467 344.65121507 603.25220693 323.98963485 628.73513301 323.98963485zM444.21648839 323.98963485c25.48292608 0 46.12820537 20.66158023 46.12820537 46.11889152 0 25.47710407-20.64528043 46.13984825-46.12820537 46.13984824-25.48176099 0-46.12937045-20.66274418-46.12937045-46.13984824C398.08711907 344.65121507 418.73472739 323.98963485 444.21648839 323.98963485zM213.5696384 370.10852637c0-25.45731129 20.64644437-46.11889152 46.12937045-46.11889152 25.48176099 0 46.12937045 20.66158023 46.12937046 46.11889152 0 25.47710407-20.64760832 46.13984825-46.12937046 46.13984824C234.21608277 416.24837461 213.5696384 395.58563043 213.5696384 370.10852637z" fill="#0D9BF2" p-id="6828"></path></svg>