<?xml version="1.0" standalone="no"?><!DOCTYPE svg PUBLIC "-//W3C//DTD SVG 1.1//EN" "http://www.w3.org/Graphics/SVG/1.1/DTD/svg11.dtd"><svg t="1533795986565" class="icon" style="" viewBox="0 0 1024 1024" version="1.1" xmlns="http://www.w3.org/2000/svg" p-id="20146" xmlns:xlink="http://www.w3.org/1999/xlink" width="128" height="128"><defs><style type="text/css"></style></defs><path d="M674.91050423 108.08618785c-17.03640537 0-30.80852529 13.52597991-30.80852529 30.09940763l0 741.03088918c0 16.63007899 13.77211992 30.09354715 30.80852529 30.09354715 17.00612624 0 30.78215314-13.46346816 30.78215315-30.09354715L705.69265738 138.18559548C705.69168063 121.61216776 691.91663047 108.08618785 674.91050423 108.08618785zM758.67624923 125.2534772c-7.44573547 0-13.51425895 5.93177903-13.51425895 13.18118853l0 740.49660907c0 7.28554911 6.06852348 13.21732814 13.51425895 13.21732814 7.39201444 0 13.45760768-5.93177903 13.45760768-13.21732814L772.13385691 138.43466573C772.13385691 131.18525622 766.06826367 125.2534772 758.67624923 125.2534772zM830.48955228 125.2534772c-7.39201444 0-13.43123554 5.93177903-13.43123553 13.18118853l0 740.49660907c0 7.28554911 6.0392211 13.21732814 13.43123553 13.21732814 7.45452619 0 13.48397982-5.93177903 13.48397983-13.21732814L843.97353211 138.43466573C843.97353211 131.18525622 837.94407847 125.2534772 830.48955228 125.2534772zM912.26761898 108.08618785c-17.01003322 0-30.81438577 13.52597991-30.81438577 30.09940763l0 741.03088918c0 16.63007899 13.80435254 30.09354715 30.81438577 30.09354715 17.03640537 0 30.80852529-13.46346816 30.80852529-30.09354715L943.07614427 138.18559548C943.07614427 121.61216776 929.30402435 108.08618785 912.26761898 108.08618785zM531.71757339 108.93791045L416.7955815 108.82167766c-30.34847788 0-54.97810738 24.02795391-55.00838651 53.80601207l-0.37409376 690.50967423c0 29.61298807 24.57102473 53.80015159 54.97517715 53.83043072l114.86534062 0.05665127c30.43736177 0 55.0972704-24.10804709 55.0972704-53.7474073l0.34674487-690.50967423C586.80898332 133.07232968 562.15200493 108.93791045 531.71757339 108.93791045zM520.74676127 367.23353121l-93.267531-0.11525604c-10.59671837 0-19.28878186-8.46936538-19.28878186-18.82873445 0.05665127-10.41309011 8.69206349-18.85217636 19.34543313-18.85217636l93.267531 0.08009318c10.59671837 0 19.26240971 8.46936538 19.26240972 18.85803684C540.03554313 358.73486345 531.40013091 367.23353121 520.74676127 367.23353121zM520.85908707 286.89225801l-93.26460076-0.02930238c-10.59964861-0.05372104-19.28878186-8.49280729-19.28878186-18.85217636 0-10.44532273 8.68913325-18.85803683 19.28878186-18.85803683l93.26460076 0.05958151c10.59964861 0 19.26240971 8.48987705 19.26240972 18.85217636C540.06484551 278.42289263 531.45971243 286.89225801 520.85908707 286.89225801zM252.80967982 108.93791045L138.00099046 108.82167766c-30.40219891 0-55.06503778 24.02795391-55.1207123 53.80601207l-0.2881401 690.50967423c-0.08595366 29.61298807 24.54367584 53.80015159 54.91950261 53.83043072l114.80868935 0.05665127c30.43443154 0 55.12364255-24.10804709 55.18322406-53.7474073l0.28520986-690.50967423C307.84736871 133.07232968 283.24411135 108.93791045 252.80967982 108.93791045zM241.95217024 367.23353121l-93.29487989-0.11525604c-10.59378813 0-19.28878186-8.46936538-19.28878186-18.82873445 0.05958151-10.41309011 8.69499373-18.85217636 19.31808424-18.85217636l93.29781013 0.08009318c10.59671837 0 19.22920035 8.46936538 19.22920035 18.85803684C261.21360321 358.73486345 252.55181885 367.23353121 241.95217024 367.23353121zM241.95217024 286.89225801l-93.20892624-0.02930238c-10.59671837-0.05372104-19.25850273-8.49280729-19.25850273-18.85217636 0-10.44532273 8.66178436-18.85803683 19.25850273-18.85803683l93.20892624 0.05958151c10.62992774 0 19.26143297 8.48987705 19.26143297 18.85217636C261.21360321 278.42289263 252.55181885 286.89225801 241.95217024 286.89225801z" fill="#1296db" p-id="20147"></path></svg>