<?xml version="1.0" standalone="no"?><!DOCTYPE svg PUBLIC "-//W3C//DTD SVG 1.1//EN" "http://www.w3.org/Graphics/SVG/1.1/DTD/svg11.dtd"><svg t="1540364189981" class="icon" style="" viewBox="0 0 1024 1024" version="1.1" xmlns="http://www.w3.org/2000/svg" p-id="1619" xmlns:xlink="http://www.w3.org/1999/xlink" width="200" height="200"><defs><style type="text/css"></style></defs><path d="M896 864h-112V368a16 16 0 0 0-16-16h-96a16 16 0 0 0-16 16v496h-64V544a16 16 0 0 0-16-16h-96a16 16 0 0 0-16 16v320h-80V656a16 16 0 0 0-16-16h-96a16 16 0 0 0-16 16v208h-96V128a16 16 0 0 0-32 0v736a32 32 0 0 0 32 32h736a16 16 0 0 0 0-32zM688 384h64v480h-64zM496 560h64v304h-64z m-208 112h64v192h-64z" fill="#1296db" p-id="1620"></path><path d="M320 560a64 64 0 0 0 64-64 62.4 62.4 0 0 0-3.2-17.6l104-64a64 64 0 0 0 102.4-68.8l91.2-105.6a64 64 0 0 0 41.6 16 64 64 0 1 0-64-64 64 64 0 0 0 3.2 20.8L569.6 320a64 64 0 0 0-41.6-16 64 64 0 0 0-64 64 64 64 0 0 0 3.2 20.8l-102.4 62.4A64 64 0 1 0 320 560z m400-400a32 32 0 1 1-32 32 32 32 0 0 1 32-32zM528 336a32 32 0 1 1-32 32 32 32 0 0 1 32-32z m-208 128a32 32 0 0 1 27.2 14.4v1.6h1.6a32 32 0 0 1 3.2 14.4 32 32 0 1 1-32-32z" fill="#1296db" p-id="1621"></path></svg>