<?xml version="1.0" standalone="no"?><!DOCTYPE svg PUBLIC "-//W3C//DTD SVG 1.1//EN" "http://www.w3.org/Graphics/SVG/1.1/DTD/svg11.dtd"><svg t="1536558424334" class="icon" style="" viewBox="0 0 1024 1024" version="1.1" xmlns="http://www.w3.org/2000/svg" p-id="5013" xmlns:xlink="http://www.w3.org/1999/xlink" width="200" height="200"><defs><style type="text/css"></style></defs><path d="M180.416 959.727c-25.643 0-46.337-20.695-46.337-46.337s20.695-46.337 46.337-46.337h30.892l678.78-17.042 0.838 32.488v61.783c0 8.492-6.954 15.446-15.446 15.446H180.416z" fill="#E6E9ED" p-id="5014"></path><path d="M149.524 913.39c0-25.643 20.695-46.337 46.337-46.337h-15.446c-25.643 0-46.337 20.695-46.337 46.337s20.695 46.337 46.337 46.337h15.446c-25.642 0-46.337-20.694-46.337-46.337z" fill="#2C4F98" p-id="5015"></path><path d="M303.99 156.543h494.273v61.783H303.99z" fill="#FFCE54" p-id="5016"></path><path d="M890.926 79.314v772.293c0 8.492-6.954 15.446-15.446 15.446H211.307V63.868H875.48c8.493 0 15.446 6.953 15.446 15.446z m-92.675 139.012v-61.783H303.982v61.783h494.269z m-95.149 338.571c11.435-22.852 17.92-48.661 17.92-75.993 0-93.913-75.993-169.906-169.905-169.906s-169.906 75.993-169.906 169.906c0 57.152 28.116 107.819 71.513 138.394 12.671 9.262 26.728 16.533 41.857 21.78 17.618 6.336 36.61 9.729 56.534 9.729 66.568 0.003 124.188-38.144 151.987-93.91z" fill="#F3797D" p-id="5017"></path><path d="M180.416 867.053c-25.643 0-46.337 20.695-46.337 46.337V110.206c0-25.643 20.695-46.337 46.337-46.337h30.892V867.054h-30.892z" fill="#2C4F98" p-id="5018"></path><path d="M164.97 110.206c0-25.643 20.695-46.337 46.337-46.337h-30.892c-25.643 0-46.337 20.695-46.337 46.337V913.39c0-20.197 12.912-37.151 30.892-43.518V110.206z" fill="#3A5CAC" p-id="5019"></path><path d="M551.107 480.87m-169.906 0a169.906 169.906 0 1 0 339.812 0 169.906 169.906 0 1 0-339.812 0Z" fill="#FFCE54" p-id="5020"></path><path d="M412.089 480.875c0-88.633 67.876-161.306 154.458-169.12-5.098-0.467-10.228-0.784-15.446-0.784-93.837 0-169.906 76.068-169.906 169.905s76.068 169.906 169.906 169.906c5.218 0 10.347-0.317 15.446-0.784-86.582-7.815-154.458-80.503-154.458-169.123z" fill="#FFFFFF" p-id="5021"></path><path d="M556.651 552.388l-62.084 88.662c-15.145-5.249-29.186-12.518-41.857-21.78l75.222-107.502 27.964 40.154 0.755 0.466z" fill="#656D78" p-id="5022"></path><path d="M556.651 552.388l-62.084 88.662c-15.145-5.249-29.186-12.518-41.857-21.78l75.222-107.502 27.964 40.154 0.755 0.466z" fill="#EDEDED" p-id="5023"></path><path d="M628.332 449.984l74.755 106.884c-27.8 55.766-85.406 93.913-151.984 93.913-19.924 0-38.916-3.393-56.534-9.729l62.084-88.662 71.679-102.406z" fill="#FFFFFF" p-id="5024"></path><path d="M489.318 388.201c16.985 0 30.892 13.907 30.892 30.892s-13.907 30.892-30.892 30.892-30.892-13.907-30.892-30.892c0-16.986 13.907-30.892 30.892-30.892z" fill="#F3797D" p-id="5025"></path><path d="M303.99 156.543h30.892v61.783H303.99z" fill="#FFFFFF" p-id="5026"></path><path d="M721.022 751.209H381.213c-4.268 0-7.723-3.455-7.723-7.723s3.455-7.723 7.723-7.723h339.809c4.268 0 7.723 3.455 7.723 7.723s-3.455 7.723-7.723 7.723zM628.345 782.101H473.888c-4.268 0-7.723-3.455-7.723-7.723s3.455-7.723 7.723-7.723h154.458c4.268 0 7.723 3.455 7.723 7.723s-3.454 7.723-7.724 7.723z" fill="#FFFFFF" p-id="5027"></path></svg>