<?xml version="1.0" standalone="no"?><!DOCTYPE svg PUBLIC "-//W3C//DTD SVG 1.1//EN" "http://www.w3.org/Graphics/SVG/1.1/DTD/svg11.dtd"><svg t="1533798309651" class="icon" style="" viewBox="0 0 1191 1024" version="1.1" xmlns="http://www.w3.org/2000/svg" p-id="28684" xmlns:xlink="http://www.w3.org/1999/xlink" width="148.875" height="128"><defs><style type="text/css"></style></defs><path d="M26.065 297.89l3.724-11.17c11.171-37.236 52.131-59.578 93.091-48.407 18.618 7.447 33.513 18.618 40.96 37.236 14.895 26.066 11.17 59.578-7.447 81.92-3.724 0-3.724 3.724-7.448 7.447 55.855 33.513 107.986 67.026 160.117 96.815 18.618 11.17 40.96 26.065 59.578 37.236 7.447 7.448 18.618 3.724 22.342-3.723l3.723-3.724c63.302-111.71 122.88-223.418 186.182-338.85-26.065-11.172-44.683-37.237-44.683-67.026 0-22.342 7.447-40.96 22.341-55.855 29.79-29.789 74.473-26.065 104.262 0l3.724 3.724c29.789 37.236 18.618 81.92-29.79 115.432 14.895 29.79 29.79 59.579 48.408 85.644 44.684 81.92 89.367 163.84 134.051 242.036 11.17 18.619 18.618 22.342 33.513 11.171 70.749-40.96 137.774-85.643 208.523-126.603l11.171-7.448c-14.894-11.17-22.342-29.789-26.065-48.407-3.724-40.96 29.789-74.473 67.025-78.196 33.513-3.724 63.302 18.618 74.473 52.13 0 11.172 3.724 14.895 3.724 18.619v26.065c-11.171 37.237-37.237 59.579-78.197 59.579 0 3.723-3.723 7.447-3.723 14.894l-122.88 417.047c-3.724 18.619-11.171 22.342-29.79 22.342h-696.32c-18.618 0-26.065-3.723-29.789-22.342-33.512-111.709-67.025-223.418-96.814-338.85-7.447-29.79-18.618-59.579-26.066-93.091-29.789 0-55.854-14.895-70.749-37.237-3.723-11.17-7.447-14.894-11.17-22.342v-26.065z m584.611 610.677h327.68c29.79 0 55.855 22.342 55.855 52.131 0 26.066-18.618 52.131-44.684 55.855h-666.53c-22.342 0-44.684-14.895-52.132-37.237-7.447-22.341 0-48.407 18.619-59.578 11.17-7.447 22.341-11.17 37.236-11.17 107.985-3.724 215.97 0 323.956 0z" fill="#FFF142" p-id="28685"></path><path d="M610.676 14.895c11.171 0 33.513 3.723 52.131 22.341l3.724 3.724c29.789 37.236 18.618 81.92-29.79 115.433 14.895 29.789 29.79 59.578 48.408 85.643 44.684 81.92 89.367 163.84 134.051 242.037 11.17 18.618 18.618 22.342 33.513 11.17 70.749-40.96 137.774-85.643 208.523-126.603l11.171-7.447c-14.894-11.171-22.342-29.79-26.065-48.408-3.724-40.96 29.789-74.472 67.025-78.196 33.513-3.724 63.302 18.618 74.473 52.131 0 3.724 3.724 7.447 3.724 11.17v26.066c-11.171 37.237-37.237 59.579-78.197 59.579 0 3.723-3.723 7.447-3.723 14.894l-122.88 417.047c-3.724 18.619-11.171 22.342-29.79 22.342H610.677V14.895z m0 893.672h327.68c29.79 0 55.855 22.342 55.855 52.131 0 26.066-18.618 52.131-44.684 55.855H614.4" fill="#FFC41F" p-id="28686"></path></svg>