<?xml version="1.0" standalone="no"?><!DOCTYPE svg PUBLIC "-//W3C//DTD SVG 1.1//EN" "http://www.w3.org/Graphics/SVG/1.1/DTD/svg11.dtd"><svg t="1534298710343" class="icon" style="" viewBox="0 0 1024 1024" version="1.1" xmlns="http://www.w3.org/2000/svg" p-id="2763" xmlns:xlink="http://www.w3.org/1999/xlink" width="128" height="128"><defs><style type="text/css"></style></defs><path d="M586.395264 838.295174c0 37.81377-30.809887 68.450758-68.837531 68.450758l-9.758263 0c-37.996662 0-68.802552-30.636989-68.802552-68.450758L438.996918 652.710278c0-37.789784 30.80589-68.420776 68.832534-68.420776l9.762261 0c37.997662 0 68.803551 30.630992 68.803551 68.451758L586.395264 838.295174 586.395264 838.295174zM910.658632 499.662253c0-50.395373-41.093841-91.260349-91.766052-91.260349L206.5006 408.401904c-50.67321 0-91.766052 40.865975-91.766052 91.260349l0 433.111378c0 50.364391 41.092842 91.225369 91.766052 91.225369l612.421963 0c50.641228 0 91.73507-40.860978 91.73507-91.254352L910.657633 499.662253 910.658632 499.662253zM856.448502 349.773372l-91.770049 0c0-146.569833-112.52085-258.520019-256.1694-258.520019S252.370634 203.202539 252.370634 349.773372l-91.766052 0c0-175.881601 156.060254-349.774371 347.90447-349.774371C700.359265-0.000999 856.448502 173.890771 856.448502 349.773372L856.448502 349.773372zM856.448502 349.773372" p-id="2764" fill="#707070"></path></svg>