<?xml version="1.0" standalone="no"?><!DOCTYPE svg PUBLIC "-//W3C//DTD SVG 1.1//EN" "http://www.w3.org/Graphics/SVG/1.1/DTD/svg11.dtd"><svg t="1534298636237" class="icon" style="" viewBox="0 0 1024 1024" version="1.1" xmlns="http://www.w3.org/2000/svg" p-id="1846" xmlns:xlink="http://www.w3.org/1999/xlink" width="128" height="128"><defs><style type="text/css"></style></defs><path d="M951 0H73C32.7 0.1 0.1 32.7 0 72.9v878.3c0.1 40.2 32.7 72.8 73 72.8h878c40.3 0 72.9-32.6 73-72.8V72.9C1023.9 32.7 991.3 0.1 951 0z m8.9 951.3c-0.1 4.8-4.1 8.7-8.9 8.7H73c-4.9 0-8.8-3.9-8.9-8.8v-69.4h895.8v69.5z m0-133.5H64.1V215h895.8v602.8z m0-666.7H64.1V72.9c0.1-4.9 4-8.8 8.9-8.8h878c4.9 0 8.9 3.9 8.9 8.8v78.2zM430 692.2c5.7 0 11.2-1.5 16.1-4.4l256.4-148.1c15.3-8.8 20.6-28.4 11.7-43.7-2.8-4.8-6.8-8.9-11.7-11.7l-256.7-148c-15.4-8.8-35.1-3.4-43.8 12-2.7 4.8-4.2 10.2-4.2 15.7v296.2c0.1 17.7 14.4 32 32.1 31.9 0 0.1 0 0.1 0.1 0.1z m32.1-272.8L622.5 512 462 604.7V419.4z" fill="#707070" p-id="1847"></path></svg>