<?xml version="1.0" standalone="no"?><!DOCTYPE svg PUBLIC "-//W3C//DTD SVG 1.1//EN" "http://www.w3.org/Graphics/SVG/1.1/DTD/svg11.dtd"><svg t="1533797928197" class="icon" style="" viewBox="0 0 1024 1024" version="1.1" xmlns="http://www.w3.org/2000/svg" p-id="25936" xmlns:xlink="http://www.w3.org/1999/xlink" width="128" height="128"><defs><style type="text/css"></style></defs><path d="M558.336 918.528H35.456c-19.584 0-35.456-16.192-35.456-38.464 0-49.536 7.04-82.368 21.12-98.368 34.688-39.552 109.12-74.432 182.464-100.864 73.408-26.368 115.008-68.544 115.008-92.352 0-16.32-7.744-53.824-22.464-78.208-43.52-48.448-71.872-122.88-71.872-209.984C224.256 145.408 295.68 64 419.2 64 542.72 64 614.208 145.408 614.208 300.288c0 88.448-29.248 163.84-73.92 212.224-14.016 24.32-21.504 60.16-21.504 75.968 0 9.472 7.04 21.888 20.096 35.072a89.088 89.088 0 0 0-50.176 80.96v36.48c0 39.616 24.64 72.768 59.328 84.736a93.44 93.44 0 0 0 10.304 92.8z m426.048-232.32h20.48c10.24 0 17.856 9.152 19.136 17.024v36.48c0 10.432-7.68 18.24-17.92 18.24h-21.76c-10.24 0-20.48 7.808-22.976 16.96l-12.8 29.952a25.92 25.92 0 0 0 3.84 28.672l15.36 15.68c6.4 7.808 6.4 19.52 0 26.048l-25.6 26.048c-7.68 6.528-19.2 6.528-25.6 0l-15.36-15.616a24.704 24.704 0 0 0-28.096-3.904l-29.44 13.056c-8.896 2.56-16.576 12.992-16.576 23.424v23.488c0 10.432-7.68 18.24-17.92 18.24h-35.84a17.664 17.664 0 0 1-17.856-18.24v-22.144c0-10.432-7.68-20.864-16.64-23.488l-29.44-13.056a24.704 24.704 0 0 0-28.096 3.904l-15.36 15.68c-7.68 6.528-19.2 6.528-25.536 0l-25.6-26.112c-6.4-7.808-6.4-19.52 0-26.048l15.36-15.616c6.4-6.528 8.96-19.584 3.84-28.672l-12.8-30.016a25.088 25.088 0 0 0-23.04-16.96h-21.696a17.664 17.664 0 0 1-17.92-18.24v-36.48c0-10.432 7.68-18.24 17.92-18.24h21.76c10.24 0 20.48-7.808 23.04-16.96l12.8-29.952a25.92 25.92 0 0 0-3.84-28.736l-15.36-15.616c-6.4-7.808-6.4-19.52 0-26.048l25.536-26.112c7.68-6.464 19.2-6.464 25.6 0l15.36 15.68c6.4 6.528 19.2 9.088 28.096 3.84l29.44-12.992c8.96-2.56 16.64-12.992 16.64-23.424V503.68c0-10.432 7.68-18.24 17.856-18.24h35.84c10.24 0 17.92 7.808 17.92 18.24v22.208c0 10.432 7.616 20.8 16.576 23.424l29.44 13.056c8.96 5.184 21.696 2.56 28.096-3.904l15.36-15.68c7.68-6.464 19.2-6.464 25.6 0l25.536 26.112c6.4 7.808 6.4 19.52 0 26.048l-15.36 15.616a25.92 25.92 0 0 0-3.84 28.736l12.8 29.952c2.56 9.152 12.8 16.96 23.04 16.96z m-113.92 36.544c0-44.48-34.304-79.36-77.888-79.36-43.648 0-77.888 34.88-77.888 79.36s34.24 79.36 77.888 79.36c43.584 0 77.824-34.88 77.824-79.36z" fill="#515151" p-id="25937"></path></svg>