<?xml version="1.0" standalone="no"?><!DOCTYPE svg PUBLIC "-//W3C//DTD SVG 1.1//EN" "http://www.w3.org/Graphics/SVG/1.1/DTD/svg11.dtd"><svg t="1533783962607" class="icon" style="" viewBox="0 0 1024 1024" version="1.1" xmlns="http://www.w3.org/2000/svg" p-id="5666" xmlns:xlink="http://www.w3.org/1999/xlink" width="128" height="128"><defs><style type="text/css"></style></defs><path d="M418.230044 113.777778H160.659911A46.887822 46.887822 0 0 0 113.777778 160.659911v257.666845c0 25.844622 20.946489 46.791111 46.882133 46.791111h257.570133a46.785422 46.785422 0 0 0 46.791112-46.791111v-257.763556C465.117867 134.724267 444.171378 113.777778 418.230044 113.777778z m445.013334 0h-257.570134c-25.844622 0-46.791111 20.946489-46.791111 46.882133v257.666845a46.785422 46.785422 0 0 0 46.791111 46.791111h257.666845c25.844622 0 46.882133-20.946489 46.882133-46.791111v-257.763556A46.944711 46.944711 0 0 0 863.243378 113.777778zM418.230044 558.785422H160.659911c-25.844622 0-46.882133 20.946489-46.882133 46.791111v257.666845a46.887822 46.887822 0 0 0 46.882133 46.882133h257.570133c25.844622 0 46.791111-20.9408 46.791112-46.882133v-257.666845c0.096711-25.844622-20.849778-46.791111-46.791112-46.791111z m462.887823 182.528c5.165511 7.059911 11.940978 12.117333 20.320711 15.166578 1.956978 1.109333 3.629511 2.218667 5.023289 3.322311 3.072 2.491733 5.176889 5.677511 6.291911 9.557333 0.557511 3.328 0.420978 7.338667-0.420978 12.054756a72.066844 72.066844 0 0 1-4.192711 14.330311c-1.951289 4.846933-4.323556 9.210311-7.122489 13.084445-2.787556 3.879822-5.859556 6.656-9.216 8.317155-3.356444 1.661156-6.286222 2.486044-8.800711 2.486045-2.520178 0-5.307733-0.551822-8.379733-1.661156a88.462222 88.462222 0 0 0-10.478934-2.275556 49.282844 49.282844 0 0 0-12.782933-0.420977c-4.323556 0.415289-8.658489 1.319822-12.987733 2.696533a25.463467 25.463467 0 0 0-11.104712 7.0656c-6.7072 6.929067-10.615467 14.819556-11.736177 23.682844a46.341689 46.341689 0 0 0 3.777422 25.349689c2.787556 5.540978 2.372267 11.081956-1.262933 16.617245-1.672533 2.218667-4.329244 4.5056-7.964445 6.855111-3.629511 2.360889-7.611733 4.5056-11.940978 6.445511-4.323556 1.934222-8.868978 3.458844-13.6192 4.568178-4.750222 1.109333-8.931556 1.666844-12.572444 1.666844-2.5088 0-4.886756-0.967111-7.1168-2.912711-2.241422-1.939911-3.777422-4.016356-4.613689-6.229333h-0.420978c-3.072-8.590222-8.305778-16.002844-15.712711-22.232178-7.401244-6.229333-15.997156-9.346844-25.770667-9.346844-9.500444 0-18.090667 3.117511-25.770666 9.346844s-13.061689 13.505422-16.133689 21.816889c-1.399467 3.322311-3.492978 5.745778-6.286222 7.2704a18.921244 18.921244 0 0 1-9.216 2.286933c-3.913956 0-8.317156-0.694044-13.203911-2.076444a124.182756 124.182756 0 0 1-14.665956-5.193956 70.166756 70.166756 0 0 1-13.198222-7.276089c-3.913956-2.7648-6.849422-5.535289-8.8064-8.305777a12.5952 12.5952 0 0 1-2.298311-6.8608c-0.147911-2.628267 0.904533-6.303289 3.134577-11.008 3.072-6.371556 4.266667-13.641956 3.561245-21.816889-0.694044-8.169244-4.260978-15.7184-10.678045-22.641778a27.300978 27.300978 0 0 0-14.250666-8.100978 58.407822 58.407822 0 0 0-15.928889-1.456355 70.843733 70.843733 0 0 0-18.016711 3.322311c-3.908267 1.109333-7.822222 0.830578-11.730489-0.830578-3.072-1.109333-5.9392-3.669333-8.590222-7.685689a85.134222 85.134222 0 0 1-7.122489-13.294933 81.3568 81.3568 0 0 1-4.818489-14.961778c-1.120711-5.12-1.399467-9.346844-0.841956-12.669156 0.841956-6.098489 3.6352-9.978311 8.385423-11.633777 8.374044-3.328 15.917511-8.795022 22.624711-16.412445 6.7072-7.623111 10.057956-16.139378 10.057955-25.560178 0-9.693867-3.356444-18.147556-10.057955-25.344-6.7072-7.202133-14.244978-12.464356-22.624711-15.792355-2.520178-0.824889-4.613689-2.838756-6.286223-6.018845a20.781511 20.781511 0 0 1-2.514489-9.767822c0-3.601067 0.557511-7.623111 1.672534-12.049067 1.120711-4.437333 2.588444-8.726756 4.397511-12.879644 1.820444-4.152889 3.913956-7.964444 6.286222-11.428978 2.377956-3.464533 4.960711-6.030222 7.753956-7.685689 2.235733-1.388089 4.397511-1.939911 6.496711-1.661155 2.093511 0.273067 4.397511 0.830578 6.912 1.661155a51.143111 51.143111 0 0 0 26.191644 3.117511c9.079467-1.251556 17.112178-5.193956 24.092445-11.844266 3.356444-3.322311 5.802667-7.412622 7.338666-12.259556 1.536-4.846933 2.514489-9.6256 2.929778-14.336 0.420978-4.704711 0.420978-8.999822 0-12.879644a162.292622 162.292622 0 0 0-1.046755-8.311467 44.635022 44.635022 0 0 1-1.467734-5.814044c-0.415289-2.218667-0.210489-4.152889 0.625778-5.819734 1.678222-3.879822 4.681956-7.2704 9.0112-10.183111a70.883556 70.883556 0 0 1 14.040178-7.2704 91.818667 91.818667 0 0 1 14.665955-4.357689c4.744533-0.967111 8.521956-1.456356 11.3152-1.456355 3.629511 0 6.496711 1.1776 8.590223 3.5328 2.093511 2.349511 3.561244 4.778667 4.397511 7.2704 3.072 7.480889 8.100978 14.057244 15.086933 19.740444 6.985956 5.677511 15.223467 8.516267 24.718222 8.516267 9.784889 0 18.443378-2.702222 25.986845-8.100978 7.543467-5.404444 12.856889-12.259556 15.9232-20.571022 1.120711-2.212978 2.8672-4.499911 5.233777-6.855111 2.377956-2.3552 4.824178-3.527111 7.338667-3.527111 3.908267 0 8.169244 0.546133 12.782933 1.655466 4.608 1.109333 9.147733 2.633956 13.613512 4.573867 4.471467 1.939911 8.590222 4.431644 12.361955 7.4752 3.771733 3.049244 6.769778 6.371556 9.0112 9.972622 1.399467 2.218667 1.820444 4.642133 1.257245 7.276089-0.557511 2.628267-1.115022 4.494222-1.678223 5.603556-3.629511 8.032711-4.744533 16.4864-3.356444 25.349689 1.405156 8.863289 5.461333 16.617244 12.162844 23.267555 6.695822 6.650311 14.939022 10.319644 24.718223 11.008 9.7792 0.694044 18.858667-0.898844 27.2384-4.772978 2.235733-1.388089 4.955022-1.939911 8.169244-1.661155a12.8 12.8 0 0 1 8.174933 3.7376c4.192711 3.879822 7.890489 9.762133 11.104711 17.658311a99.612444 99.612444 0 0 1 6.496712 23.893333c0.557511 4.7104-0.210489 8.374044-2.309689 11.013689-2.093511 2.628267-4.260978 4.357689-6.491023 5.193956-8.664178 3.043556-16.065422 8.374044-22.215111 15.991466-6.144 7.623111-9.216 16.270222-9.216 25.969778 0.005689 9.4208 2.594133 17.658311 7.765334 24.723911z m-98.480356-88.917333c-8.237511-8.174933-17.954133-14.620444-29.127111-19.325156-11.172978-4.7104-23.04-7.054222-35.612444-7.054222s-24.382578 2.343822-35.413334 7.054222a91.830044 91.830044 0 0 0-28.916622 19.319467 90.936889 90.936889 0 0 0-19.484444 28.672c-4.744533 10.945422-7.122489 22.647467-7.122489 35.111822s2.377956 24.172089 7.122489 35.111822a93.411556 93.411556 0 0 0 19.484444 28.8768 90.089244 90.089244 0 0 0 28.916622 19.529956c11.036444 4.7104 22.840889 7.0656 35.413334 7.0656s24.439467-2.3552 35.612444-7.0656c11.172978-4.7104 20.8896-11.218489 29.127111-19.529956a93.462756 93.462756 0 0 0 19.484445-28.8768c4.750222-10.939733 7.122489-22.641778 7.122488-35.111822 0-12.458667-2.372267-24.1664-7.122488-35.111822a90.897067 90.897067 0 0 0-19.484445-28.672z" fill="#abe61e" p-id="5667"></path></svg>