<?xml version="1.0" standalone="no"?><!DOCTYPE svg PUBLIC "-//W3C//DTD SVG 1.1//EN" "http://www.w3.org/Graphics/SVG/1.1/DTD/svg11.dtd"><svg t="1534298773167" class="icon" style="" viewBox="0 0 1024 1024" version="1.1" xmlns="http://www.w3.org/2000/svg" p-id="3497" xmlns:xlink="http://www.w3.org/1999/xlink" width="128" height="128"><defs><style type="text/css"></style></defs><path d="M793.088 235.2128h-147.456l36.9664-63.488c9.4208-16.4864 4.7104-37.6832-11.776-49.3568-16.4864-9.4208-37.6832-4.7104-49.3568 14.1312l-57.4464 98.7136H445.952l-57.4464-98.7136c-11.776-18.7392-32.9728-23.4496-49.3568-14.1312-16.4864 11.776-21.1968 32.8704-11.776 49.3568l36.9664 63.488H228.5568C158.1056 235.2128 99.328 293.9904 99.328 364.544v413.9008c0 70.5536 58.7776 129.2288 129.2288 129.2288h564.4288c73.0112 0 129.3312-56.4224 129.3312-129.2288V364.544c0.1024-70.4512-58.6752-129.3312-129.2288-129.3312z m58.7776 543.3344c0 32.9728-25.9072 58.7776-58.7776 58.7776H228.5568c-32.9728 0-58.7776-25.9072-58.7776-58.7776V364.6464c0-32.9728 25.9072-58.7776 58.7776-58.7776h564.4288c32.9728 0 58.7776 25.9072 58.7776 58.7776l0.1024 413.9008zM687.3088 522.24c-11.776-7.168-70.5536-39.936-148.1728-82.3296-42.3936-23.4496-79.9744-44.6464-84.5824-47.104-9.4208-4.7104-18.7392-7.168-28.16-7.168-30.6176 0-54.0672 25.9072-54.0672 56.4224v261.0176c0 30.6176 23.4496 54.0672 54.0672 54.0672 9.4208 0 18.7392-2.3552 25.9072-9.4208 7.0656-2.4576 44.6464-25.9072 89.2928-49.3568 79.872-44.6464 136.3968-77.6192 145.7152-82.3296 16.4864-9.4208 25.9072-28.16 25.9072-47.104-0.2048-18.5344-9.6256-37.2736-25.9072-46.6944zM508.5184 637.44c-25.9072 14.0288-49.3568 28.16-65.8432 37.6832V468.0704c16.4864 9.4208 37.6832 21.1968 63.488 35.2256 39.936 23.4496 91.7504 51.8144 122.2656 68.3008-28.16 16.4864-79.9744 44.6464-119.9104 65.8432z" p-id="3498" fill="#707070"></path></svg>