<?xml version="1.0" standalone="no"?><!DOCTYPE svg PUBLIC "-//W3C//DTD SVG 1.1//EN" "http://www.w3.org/Graphics/SVG/1.1/DTD/svg11.dtd"><svg t="1536979055433" class="icon" style="" viewBox="0 0 1024 1024" version="1.1" xmlns="http://www.w3.org/2000/svg" p-id="7122" xmlns:xlink="http://www.w3.org/1999/xlink" width="100" height="100"><defs><style type="text/css"></style></defs><path d="M619.742 902.083h-233.619c-76.871 0-140.163-63.301-140.163-140.163v-93.442c0-45.207 21.101-84.407 54.268-110.009 46.715 66.332 120.57 110.009 203.476 110.009 82.889 0 156.723-43.694 203.476-110.009 33.153 25.616 54.268 64.803 54.268 110.009v93.442c-1.529 76.871-64.803 140.163-141.659 140.163zM601.642 703.148c-1.529-4.544-13.579-3.003-16.564 0l-110.009 96.473-33.153-33.153c-13.579-16.564-27.131-19.562-31.643-16.564-3.003 1.529-15.053 12.062 0 31.643l52.753 57.283c0 0 0 0 0 0 0 1.529 1.529 3.003 1.529 3.003 3.003 3.003 7.532 3.003 10.561 0l126.618-107.018c13.579-19.562 4.544-22.595 0-31.643zM502.157 621.759c-116.039 0-211.013-105.499-211.013-233.619 0-129.617 94.946-233.619 211.013-233.619 116.039 0 211.013 105.499 211.013 233.619 0 128.107-94.946 233.619-211.013 233.619z" fill="#1afa29" p-id="7123"></path></svg>