<?xml version="1.0" standalone="no"?><!DOCTYPE svg PUBLIC "-//W3C//DTD SVG 1.1//EN" "http://www.w3.org/Graphics/SVG/1.1/DTD/svg11.dtd"><svg t="1533800427618" class="icon" style="" viewBox="0 0 1024 1024" version="1.1" xmlns="http://www.w3.org/2000/svg" p-id="31679" xmlns:xlink="http://www.w3.org/1999/xlink" width="128" height="128"><defs><style type="text/css"></style></defs><path d="M512 512m-512 0a512 512 0 1 0 1024 0 512 512 0 1 0-1024 0Z" fill="#13db8b" p-id="31680" data-spm-anchor-id="a313x.7781069.0.i128" class=""></path><path d="M581.316923 352.886154c-23.630769 35.446154-51.2 11.815385-86.646154-15.753846-35.446154-23.630769-66.953846-39.384615-43.323077-78.769231 23.630769-35.446154 74.830769-47.261538 110.276923-19.692308 35.446154 27.569231 43.323077 78.769231 19.692308 114.215385zM218.978462 675.84l-15.753847 11.815385 3.938462-15.753847 157.538461-224.492307 11.815385 7.876923-157.538461 220.553846z m445.046153-370.215385c-15.753846-94.523077-102.4-153.6-196.923077-137.846153-90.584615 15.753846-169.353846 86.646154-153.6 181.16923 3.938462 19.692308 11.815385 51.2 23.63077 70.892308L171.716923 660.086154c-3.938462 11.815385-7.876923 27.569231-7.876923 35.446154l7.876923 39.384615c-7.876923-39.384615 0 15.753846 7.876923 15.753846h55.138462c11.815385 0 23.630769-11.815385 31.507692-19.692307l66.953846-102.4 59.076923 3.938461 78.769231-122.092308s15.753846-35.446154 78.769231-66.953846c59.076923-27.569231 106.338462-19.692308 106.338461-19.692307 7.876923-35.446154 11.815385-78.769231 7.876923-118.153847z" fill="#ffffff" p-id="31681" data-spm-anchor-id="a313x.7781069.0.i121" class=""></path><path d="M641.772308 704.787692c-35.446154 0-59.076923-27.569231-59.076923-63.015384 0-35.446154 27.569231-59.076923 59.076923-59.076923 35.446154 0 59.076923 27.569231 59.076923 59.076923 0 35.446154-27.569231 63.015385-59.076923 63.015384z m129.96923-94.523077c-3.938462-11.815385-7.876923-23.630769-15.753846-35.446153l23.63077-39.384616-31.507693-31.507692-39.384615 23.630769c-11.815385-7.876923-19.692308-11.815385-31.507692-11.815385L665.403077 468.48H614.203077L606.326154 515.741538c-11.815385 0-23.630769 3.938462-31.507692 11.815385l-39.384616-23.630769-35.446154 35.446154 23.63077 39.384615c-3.938462 7.876923-7.876923 19.692308-11.815385 31.507692l-43.323077 7.876923v51.2l43.323077 7.876924c3.938462 11.815385 7.876923 23.630769 11.815385 31.507692l-23.63077 39.384615 35.446154 35.446154 39.384616-23.630769c7.876923 7.876923 19.692308 11.815385 31.507692 11.815384l7.876923 43.323077h51.2l7.876923-43.323077c11.815385-3.938462 23.630769-7.876923 31.507692-11.815384l39.384616 23.630769 35.446154-35.446154-23.63077-39.384615c7.876923-7.876923 11.815385-19.692308 15.753846-31.507692l43.323077-7.876924V618.141538l-43.323077-7.876923z" fill="#ffffff" p-id="31682" data-spm-anchor-id="a313x.7781069.0.i122" class=""></path></svg>