<?xml version="1.0" standalone="no"?><!DOCTYPE svg PUBLIC "-//W3C//DTD SVG 1.1//EN" "http://www.w3.org/Graphics/SVG/1.1/DTD/svg11.dtd"><svg t="1533793834918" class="icon" style="" viewBox="0 0 1024 1024" version="1.1" xmlns="http://www.w3.org/2000/svg" p-id="14732" data-spm-anchor-id="a313x.7781069.0.i65" xmlns:xlink="http://www.w3.org/1999/xlink" width="128" height="128"><defs><style type="text/css"></style></defs><path d="M508.858 986.042c-261.748 0-473.926-212.177-473.926-473.926S247.11 38.191 508.858 38.191s473.926 212.177 473.926 473.925-212.2 473.926-473.926 473.926m0-981.69C228.422 4.352 1.094 231.703 1.094 512.116s227.351 507.765 507.764 507.765 507.788-227.352 507.788-507.765S789.27 4.352 508.858 4.352" fill="#1296db" p-id="14733" data-spm-anchor-id="a313x.7781069.0.i66" class=""></path><path d="M322.537 512.303l0.023-1.327-313.065-1.932c0 1.094-0.093 2.165-0.093 3.282 0 90.88 24.786 175.918 67.84 248.925l270.173-155.997a185.274 185.274 0 0 1-24.878-92.951zM416.79 350.44L264.03 82.013A492.986 492.986 0 0 0 77.5 262.982L347.67 418.979a186.717 186.717 0 0 1 69.12-68.538z m186.066 1.256L754.688 92.486a488.262 488.262 0 0 0-245.97-70.796l0.024 304.454c34.35 0 66.513 9.356 94.115 25.553zM258.537 939.45a488.471 488.471 0 0 0 241.71 63.674c2.84 0 5.632-0.14 8.448-0.186v-304.43a185.065 185.065 0 0 1-94.068-25.554L258.537 939.45z m668.788-668.998L669.86 419.12a185.204 185.204 0 0 1 25.041 93.207l-0.046 1.07 296.169 1.839c0.023-0.978 0.07-1.932 0.07-2.91 0-87.993-23.25-170.495-63.768-241.873z m-326.47 403.643l148.573 261.073A492.777 492.777 0 0 0 927.535 753.78L670.068 605.137a187.043 187.043 0 0 1-69.213 68.958z" fill="#1296db" p-id="14734" data-spm-anchor-id="a313x.7781069.0.i64" class=""></path><path d="M644.143 512.303a135.4 135.4 0 0 0-135.424-135.401l-84.62-160.791 20.643 173.824c-42.66 22.784-71.4 70.609-71.4 122.368a135.447 135.447 0 0 0 270.8 0zM510.65 582.4a68.492 68.492 0 1 1 0.023-136.96 68.492 68.492 0 0 1-0.023 136.96z" fill="#f4ea2a" p-id="14735" data-spm-anchor-id="a313x.7781069.0.i67" class="selected"></path></svg>