<?xml version="1.0" standalone="no"?><!DOCTYPE svg PUBLIC "-//W3C//DTD SVG 1.1//EN" "http://www.w3.org/Graphics/SVG/1.1/DTD/svg11.dtd"><svg t="1533797544383" class="icon" style="" viewBox="0 0 1024 1024" version="1.1" xmlns="http://www.w3.org/2000/svg" p-id="25162" xmlns:xlink="http://www.w3.org/1999/xlink" width="128" height="128"><defs><style type="text/css"></style></defs><path d="M921.6 620.8h-44.8c0-115.2-51.2-198.4-128-249.6L832 192c19.2 0 32-12.8 32-32 0-12.8-6.4-32-19.2-38.4-12.8-6.4-32-6.4-44.8 6.4-12.8 12.8-12.8 32 0 44.8L710.4 352c-64-25.6-134.4-44.8-204.8-38.4-70.4 0-140.8 12.8-204.8 44.8l-83.2-179.2c6.4-12.8 6.4-32 0-44.8-12.8-12.8-32-12.8-44.8-6.4-19.2 6.4-25.6 19.2-19.2 38.4 0 12.8 12.8 25.6 32 25.6l89.6 179.2c-76.8 51.2-128 134.4-128 249.6h-44.8c-6.4 0-19.2 6.4-25.6 12.8C70.4 640 64 652.8 64 659.2v89.6c0 6.4 6.4 19.2 12.8 25.6 6.4 6.4 12.8 12.8 25.6 12.8h44.8V832c0 32 25.6 51.2 51.2 51.2h627.2c32 0 51.2-25.6 51.2-51.2v-44.8h44.8c19.2 0 38.4-19.2 38.4-38.4v-89.6c0-12.8-6.4-19.2-12.8-25.6-6.4-6.4-12.8-12.8-25.6-12.8z m-787.2 128H96v-89.6h38.4v89.6z m710.4 76.8c0 12.8-6.4 19.2-19.2 19.2H198.4c-12.8 0-19.2-6.4-19.2-19.2v-192C179.2 384 409.6 358.4 512 352s332.8 25.6 332.8 275.2v198.4z m76.8-76.8h-38.4v-89.6h38.4v89.6z" fill="#d81e06" p-id="25163"></path><path d="M652.8 512H371.2c-44.8 0-89.6 32-96 83.2 0 25.6 6.4 51.2 25.6 70.4 19.2 19.2 38.4 32 64 32h281.6c44.8 0 89.6-32 96-83.2 0-25.6-6.4-51.2-25.6-70.4-12.8-25.6-38.4-32-64-32z m0 140.8H371.2c-25.6 0-51.2-19.2-57.6-44.8 0-12.8 0-32 12.8-44.8 12.8-12.8 25.6-19.2 38.4-19.2h281.6c25.6 0 51.2 19.2 57.6 44.8 6.4 12.8 0 32-12.8 44.8-6.4 12.8-19.2 19.2-38.4 19.2z" fill="#d81e06" p-id="25164"></path></svg>