<?xml version="1.0" standalone="no"?><!DOCTYPE svg PUBLIC "-//W3C//DTD SVG 1.1//EN" "http://www.w3.org/Graphics/SVG/1.1/DTD/svg11.dtd"><svg t="1533783797492" class="icon" style="" viewBox="0 0 1024 1024" version="1.1" xmlns="http://www.w3.org/2000/svg" p-id="3901" xmlns:xlink="http://www.w3.org/1999/xlink" width="128" height="128"><defs><style type="text/css"></style></defs><path d="M576 966.4l19.2-96-70.4-64c-25.6-25.6-32-51.2-25.6-83.2 6.4-25.6 32-51.2 64-51.2l83.2-12.8c-6.4 0-6.4-6.4-12.8-6.4 0-12.8-6.4-19.2-12.8-32-6.4-6.4-6.4-19.2-6.4-25.6v-32c0-6.4 6.4-12.8 6.4-19.2 0-6.4 6.4-12.8 6.4-12.8l12.8-12.8c6.4-6.4 12.8-6.4 19.2-12.8 6.4-6.4 6.4-12.8 12.8-19.2 6.4-6.4 6.4-19.2 12.8-25.6 0-6.4 6.4-19.2 6.4-32 6.4 0 12.8-6.4 19.2-12.8 6.4-6.4 6.4-12.8 12.8-19.2 6.4-6.4 6.4-19.2 6.4-32v-25.6c0-6.4-6.4-12.8-6.4-19.2 0-6.4-6.4-6.4-12.8-12.8 0-25.6 0-51.2-6.4-76.8 0-19.2-6.4-44.8-19.2-70.4-6.4-25.6-19.2-44.8-38.4-64l-25.6-25.6-25.6-12.8C576 51.2 563.2 44.8 544 38.4 531.2 32 512 32 492.8 32c-12.8 0-32 0-44.8 6.4-12.8 0-32 6.4-44.8 12.8-19.2 6.4-32 12.8-44.8 25.6-19.2 12.8-32 25.6-44.8 38.4-12.8 19.2-19.2 38.4-32 64-6.4 25.6-12.8 44.8-12.8 64V320c-6.4 6.4-6.4 12.8-12.8 19.2 0 6.4 0 12.8-6.4 19.2v32c6.4 12.8 12.8 19.2 19.2 25.6 6.4 6.4 6.4 12.8 12.8 12.8 6.4 6.4 6.4 6.4 12.8 6.4 0 12.8 6.4 19.2 6.4 32 0 6.4 6.4 19.2 12.8 25.6l12.8 12.8c12.8 6.4 19.2 19.2 32 25.6 6.4 6.4 12.8 19.2 12.8 38.4v25.6c0 6.4 0 19.2-6.4 25.6 0 6.4-6.4 12.8-12.8 25.6-6.4 6.4-19.2 12.8-32 25.6-19.2 12.8-38.4 19.2-57.6 25.6-19.2 6.4-115.2 38.4-140.8 44.8-19.2 6.4-38.4 19.2-51.2 25.6-12.8 12.8-25.6 32-25.6 51.2-6.4 38.4-6.4 44.8-6.4 70.4 6.4 25.6 6.4 38.4 12.8 44.8 6.4 6.4 19.2 6.4 51.2 12.8 25.6 12.8 198.4 44.8 403.2 44.8h76.8c-6.4-12.8-6.4-19.2-6.4-25.6z m396.8-230.4l-102.4-12.8c-12.8 0-32-12.8-38.4-32l-44.8-89.6c-6.4-6.4-6.4-12.8-12.8-12.8s-6.4 6.4-12.8 12.8l-44.8 89.6c-6.4 12.8-25.6 25.6-38.4 32l-102.4 12.8c-12.8 0-19.2 12.8-6.4 25.6L640 832c12.8 12.8 19.2 32 12.8 44.8l-12.8 96c0 12.8 0 19.2 12.8 19.2h12.8l89.6-44.8c6.4-6.4 12.8-6.4 25.6-6.4 6.4 0 19.2 0 25.6 6.4l89.6 44.8h12.8c6.4 0 12.8-6.4 12.8-19.2l-25.6-96c0-12.8 6.4-38.4 12.8-44.8l70.4-70.4c12.8-12.8 12.8-25.6-6.4-25.6z" fill="#1afa29" p-id="3902"></path></svg>