<?xml version="1.0" standalone="no"?><!DOCTYPE svg PUBLIC "-//W3C//DTD SVG 1.1//EN" "http://www.w3.org/Graphics/SVG/1.1/DTD/svg11.dtd"><svg t="1533784510298" class="icon" style="" viewBox="0 0 1024 1024" version="1.1" xmlns="http://www.w3.org/2000/svg" p-id="9271" xmlns:xlink="http://www.w3.org/1999/xlink" width="128" height="128"><defs><style type="text/css"></style></defs><path d="M920.934646 469.238081l-171.062004 99.496061c0.50142-45.951565 11.614525-117.821429-31.813566-146.497538-35.094286-23.169699-83.949994-15.181771-123.846656-15.181771h-24.362874c35.600823-9.162684 60.720943-44.119847 65.898873-81.558527 0.757247-2.618641 1.007957-5.500271 0.883113-8.774851 0.124843-3.137457-0.124843-6.019087-0.757247-8.506745-6.061043-47.78226-40.773635-81.295538-88.49552-83.914178-50.246381-2.749624-86.724177 44.50768-89.25379 92.552929-2.397606 46.344514 33.203216 81.301677 73.726142 90.333378H368.620475c51.254338-25.400506 85.72236-82.608439 91.018993-142.172023 0.50756-2.224668 0.626263-4.581342 0.50756-7.330966 0.119727-2.618641 0-4.975315-0.50756-7.068999-7.319709-88.239693-70.313416-151.334707-156.668179-155.916049-88.49552-4.718465-153.005766 77.889975-157.169599 162.854065-3.411703 69.645197 41.537022 124.890428 99.221816 149.372006H174.334537c-54.034661 0-99.860359 14.137998-107.185184 79.332836-5.804193 52.232618 0 108.789729 0 161.41632v141.122111c0 23.043832-5.553483 57.082066 2.278903 79.726809 24.989137 72.263837 93.542466 60.220546 153.381319 60.220547h443.989024c2.022053 0.26299 4.169973 0.26299 6.567579 0 3.03001 0 5.810333-0.524956 8.333805-1.311879 62.868863-11.912307 68.171636-66.370617 68.171636-123.840516V779.895423c57.05853 33.119305 114.1232 66.376757 171.056887 99.496062 8.840342 5.100158 17.293875 4.444219 24.112164 0.393972 8.076956-3.668553 14.388708-11.393491 14.388709-23.306822v-364.327705c0.00614-20.426215-21.707394-32.732495-38.494733-22.912849M509.254469 316.590472c-2.648316-50.92074 73.469292-50.65775 76.123749 0-2.654456 50.925856-73.475432 50.925856-76.123749 0m-312.322261-59.039651c-6.949272-141.77805 205.142194-141.122111 212.086349 0-6.944156 141.779074-205.143217 141.779074-212.086349 0m711.373817 553.501206c-48.480154-28.145014-96.955192-56.426127-145.429207-84.571141V621.884666c48.474015-28.15013 96.949053-56.426127 145.429207-84.571141v273.738502m-234.938824 64.539922H154.637939c-51.629891 0-36.227086-78.545914-36.227086-111.540376V486.256686c0-32.469506 39.258119-26.182312 56.050574-26.182312h498.655064c39.264259 0 25.501814 92.683912 25.501814 111.534235v183.67323c0.124843 22.912849 15.402805 115.334795-25.251104 120.31011m0 0" p-id="9272" fill="#d4237a"></path></svg>