<?xml version="1.0" standalone="no"?><!DOCTYPE svg PUBLIC "-//W3C//DTD SVG 1.1//EN" "http://www.w3.org/Graphics/SVG/1.1/DTD/svg11.dtd"><svg t="1533792289320" class="icon" style="" viewBox="0 0 1205 1024" version="1.1" xmlns="http://www.w3.org/2000/svg" p-id="11940" xmlns:xlink="http://www.w3.org/1999/xlink" width="150.625" height="128"><defs><style type="text/css"></style></defs><path d="M45.49545 901.686931h323.714613V469.754225l-88.563432-51.368357L45.49545 584.549973v317.136958z m0 0M445.55785 901.686931h323.714613V472.259998L612.81823 581.496062 445.55785 505.93133v395.755601z m0 0M845.620249 421.43978v480.325457h323.714614V424.415386l-138.20907-151.051159-185.505544 148.075553z m0 0" fill="#FF790D" p-id="11941"></path><path d="M98.978053 464.272845l176.030588-122.313068 336.321786 170.079376L1010.13994 200.070353c1.409498-1.096276 2.584079-2.427468 3.836966-3.680355l67.186052 56.379903L1189.302745 0l-310.324386 83.003747 74.23354 62.409421c-0.939665 0.626443-2.035941 1.174581-2.975606 1.87933L599.81953 421.361474 266.943183 253.083123 42.911371 408.675996c-18.48008 12.842089-20.985853 35.707272-5.481379 51.055135s43.067982 17.462109 61.548061 4.541714z m0 0M1162.052459 951.489179H43.61612c-24.11807 0-43.61612 16.209222-43.61612 36.255411 0 19.967883 19.576355 36.25541 43.61612 36.25541H1162.052459c24.11807 0 43.61612-16.209222 43.616119-36.25541 0-19.967883-19.576355-36.25541-43.616119-36.255411z m0 0" fill="#FF790D" p-id="11942"></path></svg>