<?xml version="1.0" standalone="no"?><!DOCTYPE svg PUBLIC "-//W3C//DTD SVG 1.1//EN" "http://www.w3.org/Graphics/SVG/1.1/DTD/svg11.dtd"><svg t="1540955540651" class="icon" style="" viewBox="0 0 1024 1024" version="1.1" xmlns="http://www.w3.org/2000/svg" p-id="2476" xmlns:xlink="http://www.w3.org/1999/xlink" width="100" height="100"><defs><style type="text/css"></style></defs><path d="M964.5 508.992c0 123.15 0.033 246.301-0.02 369.451-0.017 38.497-25.459 69.833-62.896 77.507-5.18 1.063-10.579 1.486-15.876 1.488-246.468 0.07-492.935 0.086-739.402 0.038-44.275-0.009-78.766-34.344-78.777-78.516-0.062-246.635-0.061-493.269 0-739.902 0.011-44.178 34.482-78.523 78.76-78.533 246.467-0.052 492.934-0.052 739.402 0 44.494 0.009 78.761 34.405 78.785 79.016C964.543 262.691 964.5 385.842 964.5 508.992zM866.5 509.106c0-8.167 0.008-16.333-0.002-24.5-0.021-18.509-10.886-29.401-29.528-29.53-9.5-0.065-19.001 0.074-28.5-0.034-16.134-0.186-29.944-9.942-35.959-24.879-6.4-15.895-12.941-31.735-19.63-47.511-5.995-14.143-2.96-31.103 7.935-42.118 7.031-7.11 14.177-14.107 21.214-21.212 11.854-11.968 11.848-28.032-0.053-40.006-11.984-12.057-24.013-24.071-36.08-36.044-12.205-12.108-28.121-12.131-40.385-0.07-7.248 7.129-14.318 14.439-21.61 21.522-10.771 10.465-27.545 13.369-41.324 7.55-15.632-6.602-31.286-13.157-47.021-19.508-16.17-6.525-25.529-19.977-25.606-37.44-0.043-9.833 0.193-19.673-0.087-29.498-0.469-16.393-11.822-27.276-28.207-27.318-16.999-0.043-33.999-0.036-50.999-0.002-17.13 0.035-28.368 11.285-28.491 28.538-0.068 9.666 0.057 19.333-0.032 28.999-0.153 16.759-9.795 30.387-25.359 36.634-15.748 6.321-31.422 12.831-47.041 19.463-14.23 6.043-31.01 3.042-42.098-7.901-7.117-7.024-14.126-14.159-21.266-21.16-12.094-11.86-28.031-11.877-40.014-0.004-12.193 12.084-24.333 24.222-36.419 36.412-11.64 11.741-11.638 27.846-0.032 39.658 7.125 7.251 14.395 14.36 21.525 21.607 10.741 10.918 13.759 27.711 7.842 41.684-6.617 15.625-13.154 31.287-19.488 47.029-6.483 16.116-20.076 25.631-37.416 25.689-9.832 0.033-19.671-0.277-29.496-0.004-16.424 0.456-27.29 11.748-27.355 28.16-0.069 17.166-0.078 34.333 0.003 51.499 0.077 16.539 11.411 27.851 28.001 28.003 9.833 0.091 19.668-0.095 29.5 0.049 16.862 0.247 30.376 9.867 36.62 25.401 6.328 15.744 12.868 31.405 19.504 47.023 6.051 14.237 3.057 31.072-7.858 42.117-7.029 7.112-14.179 14.105-21.212 21.214-11.806 11.933-11.844 28.176-0.051 40.05 11.979 12.062 24.011 24.071 36.078 36.046 12.256 12.163 28.112 12.216 40.365 0.151 7.125-7.017 14.122-14.162 21.242-21.185 10.886-10.737 27.705-13.757 41.682-7.849 15.782 6.672 31.614 13.233 47.515 19.621 15.445 6.205 25.099 19.986 25.231 36.745 0.076 9.666-0.034 19.333 0.028 28.999 0.108 16.89 11.407 28.23 28.226 28.288 16.667 0.059 33.333 0.025 50 0.01 18.446-0.017 29.42-10.979 29.543-29.559 0.063-9.5-0.092-19.002 0.038-28.5 0.222-16.1 10.054-29.938 24.959-35.926 15.899-6.387 31.744-12.918 47.521-19.602 14.186-6.01 31.101-2.999 42.112 7.909 7.104 7.038 14.063 14.222 21.186 21.24 11.831 11.658 27.914 11.766 39.656 0.181 12.34-12.173 24.59-24.437 36.781-36.757 11.66-11.782 11.625-27.826-0.02-39.645-7.135-7.242-14.425-14.331-21.56-21.573-10.65-10.812-13.697-27.792-7.813-41.721 6.603-15.632 13.141-31.293 19.494-47.027 6.506-16.111 20.024-25.49 37.491-25.573 9.833-0.047 19.67 0.166 29.498-0.062 16.019-0.37 27.14-11.829 27.216-27.776C866.533 526.439 866.5 517.773 866.5 509.106z" fill="#1296db" p-id="2477"></path><path d="M650.828 508.872c0.558 73.611-59.477 134.133-133.663 134.75-74.369 0.619-135.137-58.936-135.8-133.089-0.67-74.76 58.926-135.76 133.142-136.28C590.073 373.724 650.255 433.153 650.828 508.872z" fill="#1296db" p-id="2478"></path></svg>