<?xml version="1.0" standalone="no"?><!DOCTYPE svg PUBLIC "-//W3C//DTD SVG 1.1//EN" "http://www.w3.org/Graphics/SVG/1.1/DTD/svg11.dtd"><svg t="1533783652263" class="icon" style="" viewBox="0 0 1024 1024" version="1.1" xmlns="http://www.w3.org/2000/svg" p-id="2132" xmlns:xlink="http://www.w3.org/1999/xlink" width="128" height="128"><defs><style type="text/css"></style></defs><path d="M986.812961 36.228289L532.165991 74.638222c-17.458568 1.396035-31.427951 15.363612-31.42795 30.72903V457.350547c0 15.363612 13.967577 27.936959 31.42795 27.936959l454.64697-2.793876c20.25425 0 37.013898-13.967577 37.013898-30.72903V63.464522c0-16.761453-16.761453-29.332995-37.013898-27.236233z" fill="#1afa29" p-id="2133" data-spm-anchor-id="a313x.7781069.0.i1" class=""></path><path d="M393.189145 86.510843L25.141512 117.936988C11.173935 119.334829 0.000235 131.20745 0.000235 145.175026v317.763274a25.036529 25.036529 0 0 0 25.141277 25.141277l368.047633-2.094956c16.761453 0 30.030109-12.571541 30.030109-27.93696V111.65212c-0.697115-15.363612-13.967577-26.537312-30.030109-25.141277z" fill="#f4ea2a" p-id="2134" data-spm-anchor-id="a313x.7781069.0.i2" class=""></path><path d="M986.812961 555.82431l-454.64697-2.793876c-17.458568 0-31.427951 12.571541-31.42795 27.936959v351.983295c0 15.363612 13.967577 29.331189 31.42795 30.72903l454.64697 38.411739c20.25425 1.396035 37.013898-10.476586 37.013898-27.236233V586.551534c0-16.759647-16.761453-30.727224-37.013898-30.727224z" fill="#d4237a" p-id="2135" data-spm-anchor-id="a313x.7781069.0.i4" class="selected"></path><path d="M393.189145 551.632593l-368.047633-2.094956A25.036529 25.036529 0 0 0 0.000235 574.68072v317.763273c0 13.967577 11.1737 25.840198 25.141277 27.238039l368.047633 31.42795c16.761453 1.396035 30.030109-9.777665 30.030109-25.141277V579.569552c-0.697115-15.365418-13.967577-27.238039-30.030109-27.936959z" fill="#1296db" p-id="2136" data-spm-anchor-id="a313x.7781069.0.i3" class=""></path></svg>