<?xml version="1.0" standalone="no"?><!DOCTYPE svg PUBLIC "-//W3C//DTD SVG 1.1//EN" "http://www.w3.org/Graphics/SVG/1.1/DTD/svg11.dtd"><svg t="1536371666230" class="icon" style="" viewBox="0 0 1024 1024" version="1.1" xmlns="http://www.w3.org/2000/svg" p-id="3270" xmlns:xlink="http://www.w3.org/1999/xlink" width="200" height="200"><defs><style type="text/css"></style></defs><path d="M214.08 152H0v214.08a96.288 96.288 0 0 0 96 96h214.08V248a96.288 96.288 0 0 0-96-96z" fill="#EE7C3D" p-id="3271"></path><path d="M359.68 102.4v257.28H102.4V102.4h257.28m6.4-102.4H96A96.288 96.288 0 0 0 0 96v270.08a96.288 96.288 0 0 0 96 96h270.08a96.288 96.288 0 0 0 96-96V96a96.288 96.288 0 0 0-96-96z" fill="#333333" p-id="3272"></path><path d="M776 152h-214.08v214.08a96.288 96.288 0 0 0 96 96h214.08V248a96.288 96.288 0 0 0-96-96z" fill="#EE7C3D" p-id="3273"></path><path d="M921.6 102.4v257.28h-257.28V102.4H921.6m6.4-102.4h-270.08a96.288 96.288 0 0 0-96 96v270.08a96.288 96.288 0 0 0 96 96H928a96.288 96.288 0 0 0 96-96V96a96.288 96.288 0 0 0-96-96z" fill="#333333" p-id="3274"></path><path d="M214.08 713.92H0V928a96.288 96.288 0 0 0 96 96h214.08v-214.08a96.288 96.288 0 0 0-96-96z" fill="#EE7C3D" p-id="3275"></path><path d="M359.68 664.32V921.6H102.4v-257.28h257.28m6.4-102.4H96a96.288 96.288 0 0 0-96 96V928a96.288 96.288 0 0 0 96 96h270.08a96.288 96.288 0 0 0 96-96v-270.08a96.288 96.288 0 0 0-96-96z" fill="#333333" p-id="3276"></path><path d="M776 713.92h-214.08V928a96.288 96.288 0 0 0 96 96h214.08v-214.08a96.288 96.288 0 0 0-96-96z" fill="#EE7C3D" p-id="3277"></path><path d="M921.6 664.32V921.6h-257.28v-257.28H921.6m6.4-102.4h-270.08a96.288 96.288 0 0 0-96 96V928a96.288 96.288 0 0 0 96 96H928a96.288 96.288 0 0 0 96-96v-270.08a96.288 96.288 0 0 0-96-96z" fill="#333333" p-id="3278"></path></svg>