<?xml version="1.0" standalone="no"?><!DOCTYPE svg PUBLIC "-//W3C//DTD SVG 1.1//EN" "http://www.w3.org/Graphics/SVG/1.1/DTD/svg11.dtd"><svg t="1533784233927" class="icon" style="" viewBox="0 0 1024 1024" version="1.1" xmlns="http://www.w3.org/2000/svg" p-id="7518" xmlns:xlink="http://www.w3.org/1999/xlink" width="128" height="128"><defs><style type="text/css"></style></defs><path d="M608.369778 969.728H0c0-102.456889 78.108444-326.883556 253.041778-391.111111a378.368 378.368 0 0 0 351.402666 64.796444 249.002667 249.002667 0 0 0-58.595555 160.881778 249.173333 249.173333 0 0 0 62.520889 165.432889zM772.551111 283.477333a283.477333 283.477333 0 1 1-566.954667 0 283.477333 283.477333 0 0 1 566.954667 0z m27.363556 307.541334a216.519111 216.519111 0 1 1 0 433.095111 216.519111 216.519111 0 0 1 0-433.095111z m-49.436445 161.735111h186.140445v-38.001778h-186.140445v38.001778z m-74.353778 149.390222h52.167112v-37.660444h-52.167112v37.660444z m0-74.865778h52.167112v-37.660444h-52.167112v37.660444z m0-74.865778h52.167112v-37.660444h-52.167112v37.660444z m260.266667 75.207112v-38.001778h-185.912889v38.001778h185.912889z m0 74.865777v-38.001777h-185.912889v38.001777h185.912889z" p-id="7519" fill="#f4ea2a"></path></svg>