<?xml version="1.0" standalone="no"?><!DOCTYPE svg PUBLIC "-//W3C//DTD SVG 1.1//EN" "http://www.w3.org/Graphics/SVG/1.1/DTD/svg11.dtd"><svg t="1533798586191" class="icon" style="" viewBox="0 0 1024 1024" version="1.1" xmlns="http://www.w3.org/2000/svg" p-id="29382" xmlns:xlink="http://www.w3.org/1999/xlink" width="128" height="128"><defs><style type="text/css"></style></defs><path d="M1009.152 798.208l-401.408-680.96c-19.968-33.792-55.808-54.272-95.744-54.272-39.936 0-75.776 20.48-95.744 54.272l-401.408 680.96c-19.968 33.792-19.968 74.24 0 108.032 19.968 33.792 55.808 54.272 95.744 54.272h802.816c39.936 0 75.776-20.48 95.744-54.272 19.968-33.28 19.968-73.728 0-108.032z m-83.968 60.928c-1.024 2.048-4.608 6.656-11.776 6.656H110.592c-7.168 0-10.752-4.608-11.776-6.656-1.024-2.048-3.584-7.168 0-13.312 98.816-167.424 197.12-334.848 295.936-502.272l105.472-178.688c3.584-6.144 9.728-6.656 11.776-6.656 2.56 0 8.192 0.512 11.776 6.656l401.408 680.96c3.584 6.144 1.024 11.264 0 13.312zM512 709.12c-39.424 0-71.168 31.232-71.168 69.632s31.744 69.632 71.168 69.632 71.168-31.232 71.168-69.632-31.744-69.632-71.168-69.632z m0-9.728c24.064 0 49.664-16.896 52.224-49.664 6.656-91.136 12.8-181.76 19.456-272.896v-1.536c0-38.4-31.744-69.632-71.168-69.632s-71.168 31.232-71.168 69.632l19.456 274.432c1.536 32.768 27.136 49.664 51.2 49.664z" p-id="29383" fill="#d4237a"></path></svg>