<?xml version="1.0" standalone="no"?><!DOCTYPE svg PUBLIC "-//W3C//DTD SVG 1.1//EN" "http://www.w3.org/Graphics/SVG/1.1/DTD/svg11.dtd"><svg t="1533794312099" class="icon" style="" viewBox="0 0 1024 1024" version="1.1" xmlns="http://www.w3.org/2000/svg" p-id="19270" xmlns:xlink="http://www.w3.org/1999/xlink" width="128" height="128"><defs><style type="text/css"></style></defs><path d="M20.347932 347.045087c0-20.669762 3.25002-35.420721 9.731642-44.219107 6.480598-8.797363 20.88261-13.195533 43.225477-13.195533l138.338718 0L211.64377 863.612103l-59.437717 0c-15.841803 0-31.530111-0.192382-47.021943-0.581238-15.491833-0.38988-26.116821-0.584308-31.878035-0.584308-19.462261 0.777713-33.125445-2.686179-41.066301-10.313903-7.939833-7.668657-11.890818-22.189372-11.890818-43.636846L20.348955 643.222647c0-8.448416 1.264806-14.753005 3.794419-18.957771 2.51017-4.202719 7.745405-7.083326 15.647375-8.600889 2.90005 0 6.851035-1.167592 11.911284-3.464915 5.021364-2.295276 10.081613-5.91471 15.101953-10.897188 5.060249-4.982478 9.380648-11.483542 12.981662-19.503193 3.601015-8.05649 5.411243-17.788132 5.411243-29.27065 0-17.593703-4.496407-31.410384-13.527085-41.337477-8.991792-9.925047-18.547425-15.685237-28.629038-17.243733-7.921413-1.518586-13.681604-4.009314-17.301038-7.435343-3.581572-3.423983-5.3918-9.379625-5.3918-17.789155L20.347932 347.045087 20.347932 347.045087 20.347932 347.045087zM110.048907 237.978043l0-29.853935c0-15.298428 5.586229-29.465079 16.738219-42.467207 11.190877-13.002129 23.257703-19.500123 36.219923-19.500123l149.158135 0 0 91.820242L110.048907 237.97702 110.048907 237.978043 110.048907 237.978043zM990.874043 487.095797c-5.762237 1.518586-9.906627 4.750187-12.417821 9.730619-2.530636 4.982478-3.774977 10.547217-3.774977 16.659425 0 6.112208 1.245364 12.026918 3.774977 17.787108 2.511193 5.762237 6.655584 9.771551 12.417821 12.069897 5.760191 2.295276 10.275018 6.885827 13.524015 13.776771 3.233648 6.889921 5.04183 14.130835 5.393847 21.799492 0.348947 7.627724-0.545422 14.906501-2.707668 21.797445-2.159176 6.889921-5.390777 11.872399-9.709129 14.94641-14.422478 9.187243-21.643949 19.501146-21.643949 30.982642 0 11.483542 7.222495 22.967084 21.643949 34.450626 2.87856 2.296299 5.585205 6.497994 8.093329 12.609179 2.530636 6.112208 3.777023 12.261255 3.777023 18.373463 0 6.110161-1.439792 11.483542-4.321422 16.074094-2.879584 4.593622-7.92039 6.888897-15.121396 6.888897l-58.366316 0c-4.323469 0-6.656607-0.388856-7.008624-1.166569-0.388856-0.740874 0.155543-2.100848 1.596358-4.00829 1.460258-1.908466 3.251044-4.01136 5.412266-6.305613 2.178619-2.296299 3.968381-4.982478 5.408173-8.019651 3.582595-10.742668 3.582595-19.929912 0-27.560706-3.601015-7.667633-9.731642-14.165628-18.370393-19.536962-5.763261-3.038196-9.92607-7.826246-12.416797-14.325263-2.530636-6.501064-3.621481-13.235442-3.252067-20.084431 0.350994-6.889921 1.614777-13.038968 3.773953-18.373463 2.163269-5.371334 5.393847-9.187243 9.713222-11.483542 5.78168-2.296299 10.101055-6.502088 12.981662-12.650111 2.879584-6.109138 4.339842-12.610202 4.339842-19.500123 0-6.890944-1.088798-13.195533-3.269463-18.955724-2.139733-5.723352-5.3918-9.730619-9.710153-12.028964-5.761214-3.074012-10.256598-7.66661-13.506619-13.778818-3.251044-6.112208-4.866844-13.002129-4.866844-20.669762s1.422396-15.102976 4.319375-22.381753c2.88163-7.2798 7.553023-13.195533 14.054087-17.789155 4.319375-3.074012 7.919367-7.278777 10.80202-12.650111 2.87856-5.331425 4.51585-11.091616 4.864798-17.203824 0.352017-6.112208-0.719384-12.06785-3.230578-17.788132-2.530636-5.760191-7.046486-10.509355-13.506619-14.364149-7.219425-3.813862-12.435217-9.340739-15.686261-16.619516-3.230578-7.278777-4.864798-14.753005-4.864798-22.381753 0-7.668657 1.63422-14.947434 4.864798-21.837354 3.251044-6.889921 7.744381-12.223393 13.505595-16.07614 12.260232-6.889921 18.917862-16.231683 20.007683-28.102035 1.091868-11.872399 0.177032-22.77061-2.705622-32.697703-2.159176-7.668657-6.479575-14.558577-12.980639-20.707624-6.482645-6.112208-14.754029-9.147334-24.855084-9.147334L378.084523 236.84729l0-90.693582 608.468099 0c5.039783 0 9.380648 1.904373 12.96222 5.720282 3.619434 3.852748 5.952572 8.408507 7.045463 13.779841 1.071402 5.371334 0.719384 10.898211-1.091868 16.659425-1.788739 5.722328-5.214768 10.509355-10.275018 14.32424-4.319375 3.852748-8.094352 8.835226-11.32493 14.94641-3.270487 6.112208-5.059226 12.416797-5.411243 18.955724-0.352017 6.501064 0.544399 13.002129 2.686179 19.462261 2.178619 6.541997 6.130627 11.328 11.909238 14.365172 7.90197 4.591575 13.857613 10.937097 17.829064 18.955724 3.952009 8.057513 5.935176 16.07614 5.935176 24.093744 0 8.05649-1.983167 15.491833-5.935176 22.381753-3.971451 6.889921-9.534144 11.872399-16.736173 14.94641-7.941879 3.037173-13.70207 7.43432-17.322527 13.195533-3.580548 5.722328-5.565762 12.06785-5.91778 18.954701-0.367367 6.853082 1.070378 13.586436 4.304026 20.085454 3.248997 6.501064 8.463766 12.027941 15.666818 16.621563 7.201006 4.593622 12.453636 10.742668 15.686261 18.373463 3.230578 7.668657 4.671393 15.298428 4.320399 22.967084-0.352017 7.667633-2.178619 14.710027-5.412266 21.252023C1002.237859 482.69865 997.374084 486.318084 990.874043 487.095797L990.874043 487.095797 990.874043 487.095797zM850.392522 469.852064c-8.638751 2.297322-15.335267 6.694469-20.004613 13.235442-4.692882 6.499018-7.201006 13.195533-7.571443 20.044522-0.352017 6.889921 1.459235 13.817704 5.390777 20.669762 3.970428 6.889921 9.92607 11.873422 17.865903 14.94641 7.201006 3.036149 12.613272 7.628748 16.191774 13.778818 3.622504 6.112208 5.587252 12.611226 5.955642 19.503193 0.352017 6.888897-0.914836 13.390985-3.773953 19.500123-2.88163 6.149047-7.220449 10.742668-13.002129 13.779841-17.980513 9.187243-27.363208 20.279882-28.081569 33.279964-0.722454 13.038968 6.129604 23.355941 20.531616 31.023574 6.499018 3.034103 11.716856 7.824199 15.666818 14.32424 3.950985 6.538927 6.129604 13.427824 6.481621 20.667715 0.36839 7.277754-0.895393 13.779841-3.777023 19.540032-2.87856 5.723352-7.549953 9.731642-14.049994 12.027941-8.641821 2.297322-15.296381 6.538927-19.989263 12.650111-4.689812 6.112208-7.201006 12.612249-7.568373 19.501146-0.352017 6.888897 1.437745 13.779841 5.408173 20.668739 3.971451 6.889921 10.276041 12.613272 18.917862 17.203824 5.761214 3.078105 9.887184 7.865131 12.416797 14.365172 2.530636 6.502088 3.427052 12.806677 2.705622 18.955724-0.718361 6.112208-2.705622 11.638061-5.953595 16.620539-3.231601 4.982478-7.726985 7.472182-13.487176 7.472182l-565.264111 0L275.401886 289.63147l571.743686 0c5.760191 0 10.255575 2.492774 13.506619 7.475252s5.039783 10.509355 5.3918 16.618493c0.36839 6.152117-0.895393 12.261255-3.777023 18.413372-2.87856 6.110161-7.549953 10.313903-14.049994 12.610202-6.460132 2.297322-11.716856 6.112208-15.666818 11.483542-3.952009 5.330402-6.28617 11.287067-7.02602 17.788132-0.720408 6.501064 0.740874 12.805654 4.319375 18.917862 3.622504 6.149047 9.731642 10.743692 18.373463 13.776771 6.501064 3.077082 11.715833 7.668657 15.687284 13.780865 3.949962 6.111185 6.110161 12.456706 6.479575 18.954701 0.350994 6.501064-1.089821 12.613272-4.338818 18.373463C862.810343 463.547475 857.575108 467.555765 850.392522 469.852064L850.392522 469.852064 850.392522 469.852064zM589.910952 546.767851c-3.601015 0-7.395434-0.38988-11.346419-1.128707-3.949962-0.780783-4.865821-3.077082-2.704598-6.889921 0.718361-1.557472 4.16281-6.888897 10.275018-16.07614 6.111185-9.18622 12.96222-18.954701 20.531616-29.271674 7.571443-10.313903 14.598486-20.084431 21.079084-29.27065 6.480598-9.184173 10.450003-14.947434 11.872399-17.204847 3.619434-6.149047 1.440815-13.428847-6.481621-21.836331-1.420349-1.518586-4.300956-3.815909-8.621355-6.889921-4.320399-3.035126-8.29185-5.331425-11.911284-6.889921-5.761214-2.297322-9.887184-2.64627-12.416797-1.127683-2.53166 1.51654-5.605671 4.982478-9.187243 10.314926-1.440815 2.296299-5.059226 7.864108-10.821463 16.658402-5.760191 8.797363-11.890818 18.180058-18.371416 28.104081-6.460132 9.963932-12.416797 18.955724-17.828041 26.975375-5.41022 8.05649-8.465812 12.845563-9.18622 14.362102-1.439792 3.036149-4.125971 4.203742-8.095375 3.426029-3.971451-0.740874-6.65763-2.648316-8.097422-5.722328-0.738827-1.51654-3.969405-5.916756-9.731642-13.195533-5.760191-7.278777-11.910261-15.491833-18.370393-24.679076-6.502088-9.18622-12.806677-17.788132-18.918885-25.845645-6.130627-8.016581-10.276041-13.58439-12.43624-16.621563-6.480598-13.039991-13.331633-17.243733-20.532639-12.650111-5.060249 3.074012-9.53619 6.345522-13.505595 9.770528-3.970428 3.423983-7.746428 6.305613-11.366885 8.601912-7.201006 5.371334-8.290827 12.261255-3.230578 20.669762 12.261255 15.296381 23.042809 29.465079 32.42448 42.467207 7.940856 10.70276 15.491833 21.056572 22.692838 30.983665 7.201006 9.964956 11.520381 15.685237 12.96222 17.243733 1.459235 3.036149 0 4.593622-4.320399 4.593622l-12.96222 0c-3.601015 0-8.835226 0.154519-15.687284 0.544399-6.830569 0.38988-13.137205 0.193405-18.897396-0.544399-5.779633 0-10.451026 1.515516-14.051017 4.590552-3.601015 3.038196-4.689812 6.889921-3.230578 11.483542 0.720408 3.037173 1.070378 7.630794 1.070378 13.743002l0 13.777795c0 3.855818 1.070378 5.955642 3.230578 6.307659 2.179642 0.388856 4.689812 0.581238 7.589862 0.581238l62.668295 0c8.641821 0 12.96222 1.907443 12.96222 5.761214l0 21.799492c0 3.812839-0.721431 5.760191-2.14178 5.760191l-72.41938 0c-4.339842-0.778736-7.201006 0.349971-8.66024 3.423983-1.439792 3.077082-2.491751 6.501064-3.230578 10.316973-0.721431 3.851725-0.721431 7.472182 0 10.937097 0.738827 3.425006 1.070378 6.305613 1.070378 8.601912 0 9.924024 4.689812 14.906501 14.07046 14.906501l64.849984 0c3.579525 0 5.738701 0.584308 6.460132 1.714038 0.740874 1.167592 1.088798 3.657296 1.088798 7.473205 0.719384 3.815909 0.895393 10.705829 0.545422 20.668739-0.350994 9.964956-0.545422 16.46602-0.545422 19.501146 0 8.446369 4.671393 12.650111 14.051017 12.650111l34.585703 0c5.77861 0 8.661264-1.907443 8.661264-5.760191l0-45.89426c0-7.667633 3.229554-11.480472 9.730619-11.480472l9.691733 0c5.060249 0 10.665921-0.195451 16.778128-0.584308 6.110161-0.388856 12.066827-0.584308 17.827017-0.584308l14.051017 0c10.081613 0 15.122419-3.813862 15.122419-11.481496l0-25.263383c0-6.848988-3.601015-10.313903-10.80202-10.313903l-62.668295 0c-7.240915 1.51654-10.82044 0-10.82044-4.592598 0-2.296299-0.176009-5.13802-0.545422-8.603959-0.349971-3.463891-0.543376-6.694469-0.543376-9.769504 0-3.037173 1.264806-5.333472 3.773953-6.889921 2.530636-1.517563 5.216815-2.296299 8.135284-2.296299l63.758116 0c7.201006 0 10.80202-2.645247 10.80202-8.016581l0-27.560706c0-3.036149-1.263783-6.112208-3.794419-9.187243-2.511193-3.074012-5.565762-4.591575-9.166777-4.591575L589.910952 546.766828 589.910952 546.767851 589.910952 546.767851zM589.910952 546.767851" p-id="19271" fill="#f32350"></path></svg>