<?xml version="1.0" standalone="no"?><!DOCTYPE svg PUBLIC "-//W3C//DTD SVG 1.1//EN" "http://www.w3.org/Graphics/SVG/1.1/DTD/svg11.dtd"><svg t="1536979046223" class="icon" style="" viewBox="0 0 1024 1024" version="1.1" xmlns="http://www.w3.org/2000/svg" p-id="6951" xmlns:xlink="http://www.w3.org/1999/xlink" width="100" height="100"><defs><style type="text/css"></style></defs><path d="M951.940741 0H72.059259C34.133333 0 0 34.133333 0 72.059259V948.148148c0 41.718519 34.133333 75.851852 72.059259 75.851852H948.148148c41.718519 0 72.059259-34.133333 72.059259-72.059259V72.059259c3.792593-37.925926-30.340741-72.059259-68.266666-72.059259zM470.281481 750.933333l-41.718518-113.777777H246.518519l-41.718519 113.777777H144.118519L310.992593 299.614815h56.888888l166.874075 451.318518h-64.474075z m390.637038-7.585185h-45.511112v-56.888889c-11.377778 18.962963-30.340741 34.133333-49.303703 45.511111-22.755556 15.17037-49.303704 18.962963-79.644445 18.962963-34.133333 0-56.888889-7.585185-75.851852-26.548148-18.962963-18.962963-30.340741-37.925926-30.34074-64.474074 0-37.925926 15.17037-64.474074 45.511111-83.437037 26.548148-18.962963 64.474074-26.548148 109.985185-26.548148h75.851852V530.962963c0-56.888889-26.548148-83.437037-83.437037-83.437037-22.755556 0-41.718519 3.792593-56.888889 15.17037-15.17037 11.377778-26.548148 26.548148-34.133333 45.511111l-49.303704-3.792592c7.585185-34.133333 22.755556-60.681481 49.303704-75.851852 22.755556-15.17037 53.096296-22.755556 91.022222-22.755556 45.511111 0 79.644444 11.377778 102.4 37.925926 18.962963 22.755556 30.340741 53.096296 30.340741 91.022223v208.592592z" p-id="6952" fill="#d81e06"></path><path d="M337.540741 379.259259L265.481481 576.474074h144.118519L341.333333 379.259259zM629.57037 659.911111c0 15.17037 3.792593 26.548148 18.962963 37.925926 11.377778 11.377778 30.340741 15.17037 49.303704 15.17037 30.340741 0 56.888889-11.377778 79.644444-30.34074 22.755556-18.962963 34.133333-41.718519 34.133334-68.266667v-26.548148h-72.059259c-75.851852 0-109.985185 22.755556-109.985186 72.059259z" p-id="6953" fill="#d81e06"></path></svg>